<mxfile host="drawio-plugin" modified="2025-04-29T10:01:01.264Z" agent="Mozilla/5.0 (Windows NT 10.0; Win64; x64) AppleWebKit/537.36 (KHTML, like Gecko) Chrome/122.0.0.0 Safari/537.36" etag="yF4xqShxgnbEsq_JoKGk" version="22.1.22" type="embed">
  <diagram name="Strona-1" id="7lX031mQywBL7zLE30Ij">
    <mxGraphModel dx="1471" dy="1111" grid="1" gridSize="10" guides="1" tooltips="1" connect="1" arrows="1" fold="1" page="1" pageScale="1" pageWidth="827" pageHeight="1169" math="0" shadow="0">
      <root>
        <mxCell id="0" />
        <mxCell id="1" parent="0" />
        <mxCell id="czYt3kx1pe7gfnXqXd32-13" style="edgeStyle=orthogonalEdgeStyle;rounded=0;orthogonalLoop=1;jettySize=auto;html=1;entryX=1;entryY=0.5;entryDx=0;entryDy=0;" parent="1" source="czYt3kx1pe7gfnXqXd32-1" target="czYt3kx1pe7gfnXqXd32-11" edge="1">
          <mxGeometry relative="1" as="geometry" />
        </mxCell>
        <mxCell id="czYt3kx1pe7gfnXqXd32-14" style="edgeStyle=orthogonalEdgeStyle;rounded=0;orthogonalLoop=1;jettySize=auto;html=1;entryX=0.5;entryY=0;entryDx=0;entryDy=0;" parent="1" source="czYt3kx1pe7gfnXqXd32-1" target="czYt3kx1pe7gfnXqXd32-3" edge="1">
          <mxGeometry relative="1" as="geometry" />
        </mxCell>
        <mxCell id="10" style="edgeStyle=orthogonalEdgeStyle;rounded=0;orthogonalLoop=1;jettySize=auto;html=1;entryX=0;entryY=0.25;entryDx=0;entryDy=0;" edge="1" parent="1" source="czYt3kx1pe7gfnXqXd32-1" target="czYt3kx1pe7gfnXqXd32-18">
          <mxGeometry relative="1" as="geometry" />
        </mxCell>
        <mxCell id="czYt3kx1pe7gfnXqXd32-1" value="Content zgodnie z design w Figma" style="rounded=0;whiteSpace=wrap;html=1;" parent="1" vertex="1">
          <mxGeometry x="370" y="290" width="240" height="200" as="geometry" />
        </mxCell>
        <mxCell id="czYt3kx1pe7gfnXqXd32-2" value="&lt;b&gt;404 &lt;/b&gt;as Page component" style="text;html=1;strokeColor=none;fillColor=none;align=center;verticalAlign=middle;whiteSpace=wrap;rounded=0;" parent="1" vertex="1">
          <mxGeometry x="440" y="250" width="110" height="30" as="geometry" />
        </mxCell>
        <mxCell id="czYt3kx1pe7gfnXqXd32-3" value="Manual Tests" style="swimlane;fontStyle=0;childLayout=stackLayout;horizontal=1;startSize=30;horizontalStack=0;resizeParent=1;resizeParentMax=0;resizeLast=0;collapsible=1;marginBottom=0;whiteSpace=wrap;html=1;" parent="1" vertex="1">
          <mxGeometry x="360" y="570" width="260" height="360" as="geometry" />
        </mxCell>
        <mxCell id="czYt3kx1pe7gfnXqXd32-4" value="Wpisujez niestneijacy url (/aasasfasf, ...)" style="text;strokeColor=none;fillColor=none;align=left;verticalAlign=middle;spacingLeft=4;spacingRight=4;overflow=hidden;points=[[0,0.5],[1,0.5]];portConstraint=eastwest;rotatable=0;whiteSpace=wrap;html=1;" parent="czYt3kx1pe7gfnXqXd32-3" vertex="1">
          <mxGeometry y="30" width="260" height="40" as="geometry" />
        </mxCell>
        <mxCell id="czYt3kx1pe7gfnXqXd32-5" value="/freelancer/profile/{dowolne id nie freelancera} (id admina, id niestnijacego uzytkownika)" style="text;strokeColor=none;fillColor=none;align=left;verticalAlign=middle;spacingLeft=4;spacingRight=4;overflow=hidden;points=[[0,0.5],[1,0.5]];portConstraint=eastwest;rotatable=0;whiteSpace=wrap;html=1;" parent="czYt3kx1pe7gfnXqXd32-3" vertex="1">
          <mxGeometry y="70" width="260" height="50" as="geometry" />
        </mxCell>
        <mxCell id="3" value="/freelancer/profile/{id} musi dzialac tylko dla zalogowanego admina" style="text;strokeColor=none;fillColor=none;align=left;verticalAlign=middle;spacingLeft=4;spacingRight=4;overflow=hidden;points=[[0,0.5],[1,0.5]];portConstraint=eastwest;rotatable=0;whiteSpace=wrap;html=1;" vertex="1" parent="czYt3kx1pe7gfnXqXd32-3">
          <mxGeometry y="120" width="260" height="50" as="geometry" />
        </mxCell>
        <mxCell id="4" value="/freelancer/profile/{id} musi nie wyswietlac profilu uzytkownika ktory nie przeszedl onboiarding" style="text;strokeColor=none;fillColor=none;align=left;verticalAlign=middle;spacingLeft=4;spacingRight=4;overflow=hidden;points=[[0,0.5],[1,0.5]];portConstraint=eastwest;rotatable=0;whiteSpace=wrap;html=1;" vertex="1" parent="czYt3kx1pe7gfnXqXd32-3">
          <mxGeometry y="170" width="260" height="60" as="geometry" />
        </mxCell>
        <mxCell id="5" value="loading musi sie wyswietlac bez wrappera kiedy ladujemy dane uzytkownika i nie wiemy czy on w ogole istnieje" style="text;strokeColor=none;fillColor=none;align=left;verticalAlign=middle;spacingLeft=4;spacingRight=4;overflow=hidden;points=[[0,0.5],[1,0.5]];portConstraint=eastwest;rotatable=0;whiteSpace=wrap;html=1;" vertex="1" parent="czYt3kx1pe7gfnXqXd32-3">
          <mxGeometry y="230" width="260" height="70" as="geometry" />
        </mxCell>
        <mxCell id="6" value="loading musi sie wyswietlac z wrapperem kiedy ktorys z serwisow sie laduje" style="text;strokeColor=none;fillColor=none;align=left;verticalAlign=middle;spacingLeft=4;spacingRight=4;overflow=hidden;points=[[0,0.5],[1,0.5]];portConstraint=eastwest;rotatable=0;whiteSpace=wrap;html=1;" vertex="1" parent="czYt3kx1pe7gfnXqXd32-3">
          <mxGeometry y="300" width="260" height="60" as="geometry" />
        </mxCell>
        <mxCell id="czYt3kx1pe7gfnXqXd32-8" value="Ma pojawic 404" style="rounded=0;whiteSpace=wrap;html=1;" parent="1" vertex="1">
          <mxGeometry x="730" y="630" width="130" height="30" as="geometry" />
        </mxCell>
        <mxCell id="czYt3kx1pe7gfnXqXd32-9" style="edgeStyle=orthogonalEdgeStyle;rounded=0;orthogonalLoop=1;jettySize=auto;html=1;entryX=0;entryY=0.5;entryDx=0;entryDy=0;" parent="1" source="czYt3kx1pe7gfnXqXd32-4" target="czYt3kx1pe7gfnXqXd32-8" edge="1">
          <mxGeometry relative="1" as="geometry" />
        </mxCell>
        <mxCell id="czYt3kx1pe7gfnXqXd32-10" style="edgeStyle=orthogonalEdgeStyle;rounded=0;orthogonalLoop=1;jettySize=auto;html=1;entryX=0;entryY=0.5;entryDx=0;entryDy=0;" parent="1" source="czYt3kx1pe7gfnXqXd32-5" target="czYt3kx1pe7gfnXqXd32-8" edge="1">
          <mxGeometry relative="1" as="geometry" />
        </mxCell>
        <mxCell id="czYt3kx1pe7gfnXqXd32-11" value="src/pages/404&lt;br&gt;src/pages/NotFoundPage" style="rounded=0;whiteSpace=wrap;html=1;" parent="1" vertex="1">
          <mxGeometry x="160" y="330" width="150" height="60" as="geometry" />
        </mxCell>
        <mxCell id="czYt3kx1pe7gfnXqXd32-12" value="Folder" style="text;html=1;align=center;verticalAlign=middle;resizable=0;points=[];autosize=1;strokeColor=none;fillColor=none;" parent="1" vertex="1">
          <mxGeometry x="205" y="290" width="60" height="30" as="geometry" />
        </mxCell>
        <mxCell id="czYt3kx1pe7gfnXqXd32-18" value="Zmiany do zrobienia" style="swimlane;whiteSpace=wrap;html=1;" parent="1" vertex="1">
          <mxGeometry x="960" y="280" width="200" height="470" as="geometry" />
        </mxCell>
        <mxCell id="czYt3kx1pe7gfnXqXd32-20" value="Tworzenie kompoentu &lt;b&gt;NotFoundPage&lt;/b&gt;" style="rounded=0;whiteSpace=wrap;html=1;" parent="czYt3kx1pe7gfnXqXd32-18" vertex="1">
          <mxGeometry x="35" y="35" width="130" height="60" as="geometry" />
        </mxCell>
        <mxCell id="czYt3kx1pe7gfnXqXd32-15" value="Zmiana routing przez dodanie route &lt;font style=&quot;font-size: 16px;&quot;&gt;&lt;b&gt;*&lt;/b&gt;&lt;/font&gt; z redirect na 404" style="rounded=0;whiteSpace=wrap;html=1;" parent="czYt3kx1pe7gfnXqXd32-18" vertex="1">
          <mxGeometry x="35" y="105" width="130" height="60" as="geometry" />
        </mxCell>
        <mxCell id="czYt3kx1pe7gfnXqXd32-16" value="Rejestracja nowego route &lt;b&gt;/404&lt;/b&gt; z redirect na komponent 404" style="rounded=0;whiteSpace=wrap;html=1;" parent="czYt3kx1pe7gfnXqXd32-18" vertex="1">
          <mxGeometry x="25" y="175" width="150" height="60" as="geometry" />
        </mxCell>
        <mxCell id="czYt3kx1pe7gfnXqXd32-17" value="W componencie FreelancerProfilePage zrobic redirect na 404 jesli freelancer/me z podanym id backend zwraca 404" style="rounded=0;whiteSpace=wrap;html=1;" parent="czYt3kx1pe7gfnXqXd32-18" vertex="1">
          <mxGeometry x="25" y="250" width="150" height="90" as="geometry" />
        </mxCell>
        <mxCell id="9" value="W componencie FreelancerProfilePage zrobic redirect na 404 jesli zalogowanyt uzytkownik nie jest adminem" style="rounded=0;whiteSpace=wrap;html=1;" vertex="1" parent="czYt3kx1pe7gfnXqXd32-18">
          <mxGeometry x="25" y="355" width="150" height="90" as="geometry" />
        </mxCell>
      </root>
    </mxGraphModel>
  </diagram>
</mxfile>
